<?xml version="1.0" encoding="UTF-8" standalone="no"?><!DOCTYPE svg PUBLIC "-//W3C//DTD SVG 1.1//EN" "http://www.w3.org/Graphics/SVG/1.1/DTD/svg11.dtd"><svg width="67px" height="67px" version="1.1" xmlns="http://www.w3.org/2000/svg" xmlns:xlink="http://www.w3.org/1999/xlink" xml:space="preserve" xmlns:serif="http://www.serif.com/" style="fill-rule:evenodd;clip-rule:evenodd;stroke-linecap:round;stroke-linejoin:round;stroke-miterlimit:1.5;"><rect id="TweenComposer" x="0" y="0" width="66.667" height="66.667" style="fill:none;"/><g id="TweenComposer1" serif:id="TweenComposer"><g transform="matrix(2.946278,2.946278,-2.946278,2.946278,45.833333,-26.011003)"><circle cx="8" cy="8" r="5" style="fill:rgb(161,109,235);"/></g><g transform="matrix(2.946278,2.946278,-2.946278,2.946278,25.209386,-28.957281)"><path d="M8,5L8,10" style="fill:none;stroke:rgb(162,109,235);stroke-width:2px;"/></g><g transform="matrix(3.467112,3.467112,-3.467112,3.467112,26.414442,-32.960558)"><path d="M14,5L14,13" style="fill:none;stroke:rgb(162,109,235);stroke-width:1.7px;"/></g><g transform="matrix(5.029612,5.029612,-5.029612,5.029612,14.644661,-58.333333)"><path d="M11,11L11,13" style="fill:none;stroke:rgb(162,109,235);stroke-width:1.17px;"/></g><g transform="matrix(0.862945,0.862945,-0.862945,0.862945,26.171788,21.806206)"><path d="M11,11L11,13" style="fill:none;stroke:rgb(162,109,235);stroke-width:6.83px;"/></g><g transform="matrix(2.946278,2.946278,-2.946278,2.946278,25.209386,-28.957281)"><path d="M8,13L8,15" style="fill:none;stroke:rgb(162,109,235);stroke-width:2px;"/></g></g></svg>